<svg xmlns="http://www.w3.org/2000/svg" width="48.104" height="30.343" viewBox="0 0 48.104 30.343">
  <path id="behance" d="M19.174,88.772a6.272,6.272,0,0,0,4-6.116c0-5.835-4.347-7.256-9.364-7.256H0v29.29H14.2c5.322,0,10.322-2.554,10.322-8.5,0-3.678-1.744-6.4-5.347-7.413ZM6.438,80.4H12.48c2.322,0,4.413.653,4.413,3.347,0,2.488-1.628,3.488-3.926,3.488H6.438V80.4Zm6.884,19.314H6.438V91.648h7.017c2.835,0,4.628,1.182,4.628,4.182C18.083,98.789,15.942,99.714,13.323,99.714ZM42.951,79.822H31.075V76.937H42.951ZM47.6,94.392c0-6.273-3.669-11.5-10.322-11.5-6.463,0-10.851,4.86-10.851,11.223,0,6.6,4.157,11.132,10.851,11.132,5.066,0,8.347-2.281,9.926-7.132H42.067c-.554,1.81-2.835,2.769-4.6,2.769-3.413,0-5.207-2-5.207-5.4h15.3C47.579,95.136,47.6,94.764,47.6,94.392ZM32.265,91.813A4.552,4.552,0,0,1,37.1,87.284c2.926,0,4.4,1.719,4.645,4.529Z" transform="translate(0.25 -75.15)" stroke="#707070" stroke-width="0.5"/>
</svg>
