<svg xmlns="http://www.w3.org/2000/svg" width="32.241" height="33.735" viewBox="0 0 32.241 33.735">
  <path id="dribble" d="M24.12,8C15.232,8,8,15.567,8,24.868s7.232,16.868,16.12,16.868,16.12-7.567,16.12-16.868S33.009,8,24.12,8Zm10.658,7.779a14.747,14.747,0,0,1,3.109,8.975A30.785,30.785,0,0,0,28.3,24.29c-.374-.955-.727-1.8-1.21-2.83A18.452,18.452,0,0,0,34.779,15.779Zm-1.531-1.666a15.626,15.626,0,0,1-7.216,5.2,77.4,77.4,0,0,0-5.138-8.434A13.3,13.3,0,0,1,33.248,14.112ZM18.266,11.851a92.506,92.506,0,0,1,5.1,8.332,49.2,49.2,0,0,1-12.729,1.755A14.361,14.361,0,0,1,18.266,11.851ZM10.351,24.89c0-.147,0-.294.007-.44A48.666,48.666,0,0,0,24.509,22.4c.394.807.771,1.627,1.116,2.445a21.527,21.527,0,0,0-11.735,9.679A14.729,14.729,0,0,1,10.351,24.89Zm5.318,11.366c1.438-3.077,5.342-7.048,10.893-9.029A62.1,62.1,0,0,1,29.5,38.152,13.246,13.246,0,0,1,15.669,36.256Zm16.145.577a64.514,64.514,0,0,0-2.675-10.272,19.359,19.359,0,0,1,8.577.616A14.51,14.51,0,0,1,31.814,36.833Z" transform="translate(-8 -8)"/>
</svg>
