<svg xmlns="http://www.w3.org/2000/svg" width="33.743" height="33.735" viewBox="0 0 33.743 33.735">
  <path id="instagram" d="M16.8,40.043a8.649,8.649,0,1,0,8.649,8.649A8.636,8.636,0,0,0,16.8,40.043Zm0,14.272a5.623,5.623,0,1,1,5.623-5.623A5.633,5.633,0,0,1,16.8,54.316ZM27.821,39.69A2.017,2.017,0,1,1,25.8,37.672,2.013,2.013,0,0,1,27.821,39.69Zm5.729,2.048a9.984,9.984,0,0,0-2.725-7.069,10.049,10.049,0,0,0-7.068-2.725c-2.785-.158-11.133-.158-13.919,0a10.035,10.035,0,0,0-7.068,2.717C.789,36.633.179,39.027.044,41.73c-.158,2.785-.158,11.133,0,13.919a9.984,9.984,0,0,0,2.725,7.068,10.062,10.062,0,0,0,7.068,2.725c2.785.158,11.133.158,13.919,0a9.984,9.984,0,0,0,7.068-2.725,10.049,10.049,0,0,0,2.725-7.068c.158-2.785.158-11.126,0-13.911Zm-3.6,16.9a5.693,5.693,0,0,1-3.207,3.207c-2.221.881-7.49.677-9.944.677s-7.731.2-9.944-.677a5.693,5.693,0,0,1-3.207-3.207c-.881-2.221-.677-7.49-.677-9.944s-.2-7.731.677-9.944a5.693,5.693,0,0,1,3.207-3.207c2.221-.881,7.49-.677,9.944-.677s7.731-.2,9.944.677a5.693,5.693,0,0,1,3.207,3.207c.881,2.221.677,7.49.677,9.944S30.832,56.424,29.951,58.637Z" transform="translate(0.075 -31.825)"/>
</svg>
