<svg xmlns="http://www.w3.org/2000/svg" width="87.676" height="70.13" viewBox="0 0 87.676 70.13">
  <path id="code" d="M38.183,70.1l-8.356-2.425A1.646,1.646,0,0,1,28.7,65.633L47.4,1.224A1.646,1.646,0,0,1,49.443.1L57.8,2.525a1.646,1.646,0,0,1,1.123,2.041l-18.7,64.409A1.641,1.641,0,0,1,38.183,70.1ZM22.567,54.729l5.959-6.356a1.644,1.644,0,0,0-.11-2.356L16.005,35.1,28.416,24.182a1.632,1.632,0,0,0,.11-2.356L22.567,15.47a1.645,1.645,0,0,0-2.329-.068L.5,33.894a1.633,1.633,0,0,0,0,2.4L20.238,54.8a1.633,1.633,0,0,0,2.329-.068Zm44.821.082L87.127,36.305a1.633,1.633,0,0,0,0-2.4L67.388,15.388a1.659,1.659,0,0,0-2.329.068L59.1,21.812a1.644,1.644,0,0,0,.11,2.356L71.62,35.1,59.21,46.017a1.632,1.632,0,0,0-.11,2.356l5.959,6.356a1.646,1.646,0,0,0,2.329.082Z" transform="translate(0.025 -0.037)" fill="#153348"/>
</svg>
