<svg xmlns="http://www.w3.org/2000/svg" width="16.5" height="22" viewBox="0 0 16.5 22">
  <path id="hand-down" d="M3.946,20.075V13.663a5.839,5.839,0,0,1-1.071.608A2.064,2.064,0,0,1,0,12.375a1.831,1.831,0,0,1,1.25-1.719c1.215-.521,2.764-3.379,3.322-4.621A2.062,2.062,0,0,1,6.456,4.813h7.37a1.03,1.03,0,0,1,1.018.871C15.157,7.7,16.5,8.337,16.492,11c0,.117.008.57.008.688,0,2.177-.951,3.505-3.062,3.12a1.968,1.968,0,0,1-2.678.707,2.114,2.114,0,0,1-3.048.271v4.29A1.938,1.938,0,0,1,5.829,22a1.969,1.969,0,0,1-1.883-1.925ZM4.812,3.094V1.031A1.031,1.031,0,0,1,5.844,0h8.25a1.031,1.031,0,0,1,1.031,1.031V3.094a1.031,1.031,0,0,1-1.031,1.031H5.844A1.031,1.031,0,0,1,4.812,3.094Zm9.109-1.031a.859.859,0,1,0-.859.859A.859.859,0,0,0,13.922,2.063Z" transform="translate(0)" fill="#f1cc55"/>
</svg>
