<svg xmlns="http://www.w3.org/2000/svg" width="91.621" height="68.375" viewBox="0 0 91.621 68.375">
  <path id="Icon_simple-adobexd" data-name="Icon simple-adobexd" d="M59.313,68.887l17.5,33.625c.313.5.125,1-.375,1H65.563a1.226,1.226,0,0,1-1.312-.812c-4-8.25-8.062-16.5-12.25-25.375h-.125C48.125,85.7,44,94.512,40,102.762a1.2,1.2,0,0,1-1.125.688H28.562c-.625,0-.687-.5-.375-.875L45.313,69.95l-16.562-33a.505.505,0,0,1,.375-.875h10.75A.984.984,0,0,1,41,36.763c3.937,8.25,7.937,16.75,11.688,25.063h.125c3.625-8.25,7.625-16.812,11.5-25,.313-.5.5-.812,1.125-.812H75.5c.5,0,.688.375.375.875ZM79.875,79.075c0-14.562,9.688-25.937,25.062-25.937a27.717,27.717,0,0,1,3.25.125V36.7a.626.626,0,0,1,.625-.625h9.875c.5,0,.625.188.625.5V93.95a44.517,44.517,0,0,0,.313,6.125c0,.375-.125.5-.5.688a37.229,37.229,0,0,1-16,3.625C89.562,104.45,79.875,96.075,79.875,79.075Zm28.313-16a9.452,9.452,0,0,0-3.625-.625c-7.875,0-13.375,6.063-13.375,16.125,0,11.5,5.625,16.125,12.688,16.125a11.791,11.791,0,0,0,4.313-.687V63.075Z" transform="translate(-28.004 -36.012)"/>
</svg>
